<svg viewBox="0 0 450 442" xmlns="http://www.w3.org/2000/svg"><g fill="#FFF" fill-rule="evenodd"><path d="M0 317.5V140C0 62.7 62.7 0 140 0h270c22 0 40 18 40 40v270c0 60.5-38.3 112-92 131.6V390H255V214h-60v28.3c-20.8-17.7-47.6-28.3-77-28.3C57.5 214 7.6 259 0 317.5z"/><path d="M195 423.6c-20.6 17-47 27.4-76 27.4C53.3 451 0 397.7 0 332c0-33 13.3-62.6 35-84-21.7 21.4-35 51-35 84 0 65.7 53.3 119 119 119 29 0 55.4-10.3 76-27.4zm0-109.6h-79v60h41.4c-10.6 10.5-25.3 17-41.4 17-32.6 0-59-26.4-59-59s26.4-59 59-59c21.7 0 40.6 11.7 51 29l28-12.4V314zm0-73.6c-20.6-17-47-27.4-76-27.4-33 0-62.6 13.3-84 35 21.4-21.7 51-35 84-35 29 0 55.4 10.3 76 27.4z"/></g></svg>